<?xml version="1.0" encoding="UTF-8"?>
<svg version="1.1" xmlns="http://www.w3.org/2000/svg" width="500" height="500">
<path d="M0 0 C165 0 330 0 500 0 C500 165 500 330 500 500 C335 500 170 500 0 500 C0 335 0 170 0 0 Z " fill="#FEFEFE" transform="translate(0,0)"/>
<path d="M0 0 C14.19 0 28.38 0 43 0 C41.63745248 3.4063688 40.57887771 5.89206893 38.671875 8.87109375 C38.2092627 9.59852783 37.74665039 10.32596191 37.27001953 11.07543945 C36.76841309 11.85491943 36.26680664 12.63439941 35.75 13.4375 C35.22132324 14.26660889 34.69264648 15.09571777 34.14794922 15.94995117 C33.01602447 17.72455653 31.88234488 19.49804357 30.74707031 21.27050781 C28.44397109 24.86869804 26.15313646 28.4746242 23.86181641 32.08032227 C22.11264254 34.83193946 20.3612945 37.58216148 18.609375 40.33203125 C16.11713535 44.24441074 13.62785268 48.1586511 11.140625 52.07421875 C10.5101123 53.06639404 9.87959961 54.05856934 9.22998047 55.08081055 C8.02538224 56.97649113 6.82125343 58.87247011 5.61767578 60.76879883 C4.79759033 62.05886841 4.79759033 62.05886841 3.9609375 63.375 C3.45095215 64.17953613 2.9409668 64.98407227 2.41552734 65.81298828 C1.19426064 67.6998643 -0.07649609 69.53343121 -1.375 71.3671875 C-5.5737693 78.17000121 -2.40127884 87.60575184 -1 95 C3.17625628 93.59791755 5.92312178 91.62593426 9.1875 88.6875 C10.04730469 87.92824219 10.90710938 87.16898437 11.79296875 86.38671875 C14.023261 83.97484518 15.01632755 82.10488789 16 79 C18.27619839 82.41429758 18.1755815 83.99579863 17.51953125 87.9609375 C15.82428649 94.61445452 10.30105619 98.62960672 5.33984375 102.94921875 C3.48214418 104.57741954 1.71688793 106.22682066 0 108 C12.39428 99.79132048 12.39428 99.79132048 19 87 C21.52692114 89.52692114 21.38257153 90.61193147 21.5 94.125 C21.34507265 101.54214692 18.07112899 104.97077726 12.99609375 109.9765625 C9.48116052 113.21803793 6.54189753 115.378456 2 117 C2.19335938 117.74121094 2.38671875 118.48242188 2.5859375 119.24609375 C4.86085708 128.44712989 6.04144727 137.58362903 7 147 C7.74507813 147.27585937 8.49015625 147.55171875 9.2578125 147.8359375 C18.36386999 151.70147188 26.30306217 159.86703228 30 169 C30.25775046 171.82416907 30.37721901 174.37869496 30.3125 177.1875 C30.31572266 177.89841797 30.31894531 178.60933594 30.32226562 179.34179688 C30.2835158 183.08643905 30.12387317 184.81419024 28 188 C27.76216797 187.05640625 27.76216797 187.05640625 27.51953125 186.09375 C24.09840982 173.54333769 17.39964599 166.50942179 7 159 C6.67 159.33 6.34 159.66 6 160 C7.06927734 160.70962891 7.06927734 160.70962891 8.16015625 161.43359375 C15.59801781 166.56902172 21.35919209 171.71838418 25.4375 179.875 C26.67075379 186.72640997 26.80094377 193.52281754 24 200 C22.22819516 197.34229274 21.43384632 195.46497264 20.4375 192.5 C15.74388102 180.73169256 6.62702273 173.26333594 -4 167 C-4.75539063 166.49726563 -5.51078125 165.99453125 -6.2890625 165.4765625 C-10.9421864 164.65857818 -14.57737922 167.29410081 -18.625 169.4375 C-20.32102588 170.31989184 -22.02138658 171.19401627 -23.7265625 172.05859375 C-24.84925537 172.65111938 -24.84925537 172.65111938 -25.99462891 173.25561523 C-28 174 -28 174 -31 173 C-31.76782227 170.85449219 -31.76782227 170.85449219 -32.31640625 168.046875 C-32.52330078 167.03496094 -32.73019531 166.02304687 -32.94335938 164.98046875 C-33.14767578 163.91441406 -33.35199219 162.84835937 -33.5625 161.75 C-33.97652021 159.66067201 -34.39436354 157.57209723 -34.81640625 155.484375 C-34.99631104 154.55334961 -35.17621582 153.62232422 -35.36157227 152.66308594 C-36.34529911 148.55964714 -37.59357124 145.5391856 -40.140625 142.16015625 C-42.40773382 138.30702382 -42.13655452 135.70118186 -41.75 131.4375 C-41.12888828 119.22992383 -44.43457782 107.50348782 -47.24316406 95.72241211 C-47.4284819 94.93010193 -47.61379974 94.13779175 -47.80473328 93.32147217 C-48.15682879 91.82355468 -48.51919027 90.32799885 -48.89363098 88.83551025 C-50.17955925 83.38109551 -50.25787738 79.44246914 -47.67163086 74.4206543 C-46.82677124 73.1354187 -46.82677124 73.1354187 -45.96484375 71.82421875 C-45.01061523 70.3546875 -45.01061523 70.3546875 -44.03710938 68.85546875 C-43.34423828 67.81003906 -42.65136719 66.76460938 -41.9375 65.6875 C-40.8421684 64.00661376 -39.74685167 62.32571757 -38.65249634 60.64419556 C-37.51857974 58.90452287 -36.38043918 57.16767074 -35.24169922 55.43115234 C-31.78356892 50.1491741 -28.39542785 44.82240282 -25 39.5 C-23.68656036 37.44638273 -22.37275575 35.39299884 -21.05859375 33.33984375 C-20.40101074 32.3122998 -19.74342773 31.28475586 -19.06591797 30.22607422 C-17.25022199 27.39073899 -15.43312638 24.55631107 -13.61514282 21.72244263 C-12.12321796 19.3966626 -10.63201452 17.07042046 -9.14086914 14.74414062 C-8.08224894 13.09329708 -7.02257968 11.4431264 -5.96289062 9.79296875 C-5.00866211 8.30410156 -5.00866211 8.30410156 -4.03515625 6.78515625 C-3.4719165 5.90738525 -2.90867676 5.02961426 -2.32836914 4.12524414 C-0.98927519 2.05758366 -0.98927519 2.05758366 0 0 Z " fill="#5215CB" transform="translate(338,146)"/>
<path d="M0 0 C20.13 0 40.26 0 61 0 C58.70420563 13.77476622 58.70420563 13.77476622 57.1953125 20.1953125 C57.03160156 20.90693039 56.86789062 21.61854828 56.69921875 22.35173035 C55.99831343 25.39329821 55.28714734 28.43242856 54.57562256 31.4715271 C54.02824547 33.81013603 53.48228545 36.14906727 52.9375 38.48828125 C52.67454636 39.61610268 52.67454636 39.61610268 52.40628052 40.76670837 C51.48424767 44.76204554 50.64117481 48.75205655 49.9375 52.79296875 C48.037103 63.55413289 43.8845264 70.64021795 37 79 C34.7534621 81.72110498 34.7534621 81.72110498 35.125 84.3125 C35.88461206 87.17346009 35.88461206 87.17346009 38.125 89.6875 C42.87896529 98.08617202 37.1857062 112.03661982 35.1875 121.0625 C34.84001153 122.65549362 34.49300355 124.24859213 34.14648438 125.84179688 C33.79991319 127.42717827 33.4529205 129.0124676 33.10546875 130.59765625 C32.95426071 131.28787369 32.80305267 131.97809113 32.64726257 132.68922424 C30.84786084 140.81345915 28.90637273 148.89791592 27 157 C14.13 157 1.26 157 -12 157 C-10.87506366 146.87557291 -10.87506366 146.87557291 -9.765625 141.8046875 C-9.52408691 140.68980957 -9.28254883 139.57493164 -9.03369141 138.42626953 C-8.77507324 137.25435059 -8.51645508 136.08243164 -8.25 134.875 C-7.97978027 133.63218262 -7.70956055 132.38936523 -7.43115234 131.10888672 C-6.62508563 127.40496511 -5.81328466 123.70234253 -5 120 C-4.20673022 116.37534876 -3.41547078 112.75026256 -2.625 109.125 C-2.42994873 108.23321045 -2.23489746 107.3414209 -2.03393555 106.42260742 C-0.70032324 100.29947399 0.59740592 94.16935924 1.87890625 88.03515625 C2.56504248 84.75259127 3.25122318 81.47003559 3.9375 78.1875 C4.19454712 76.9573114 4.19454712 76.9573114 4.45678711 75.70227051 C6.8590321 64.22166876 9.35733614 52.77363662 12.09741211 41.36791992 C12.75904921 38.58397849 13.38565344 35.79472721 14 33 C14.24580811 31.95384521 14.49161621 30.90769043 14.74487305 29.82983398 C16.14372261 23.64983712 16.14372261 23.64983712 14.47265625 17.73828125 C13.67730469 16.93777344 12.88195312 16.13726562 12.0625 15.3125 C11.22976562 14.42433594 10.39703125 13.53617188 9.5390625 12.62109375 C8.70117188 11.75613281 7.86328125 10.89117187 7 10 C5.62187915 8.3109313 4.26505264 6.60409634 2.9375 4.875 C2.36902344 4.15054688 1.80054688 3.42609375 1.21484375 2.6796875 C0 1 0 1 0 0 Z " fill="#5F18EB" transform="translate(243,146)"/>
<path d="M0 0 C12.9492152 -1.19992728 12.9492152 -1.19992728 17.203125 1.2890625 C19.05718639 3.40413253 20.4868714 5.62769263 22 8 C22.87837896 9.08447716 23.76865117 10.15938481 24.66796875 11.2265625 C25.61370763 12.39965029 26.55771555 13.57413564 27.5 14.75 C27.95866455 15.28512207 28.4173291 15.82024414 28.88989258 16.37158203 C32.42348389 21.04625017 32.33214772 24.83342086 31.60009766 30.52783203 C30.40877531 37.42082896 28.96602184 44.23838041 27.4375 51.0625 C27.07838751 52.69323807 26.71983698 54.32409998 26.36181641 55.95507812 C23.7709028 67.71546427 21.0790846 79.452964 18.37017822 91.18664551 C15.81177437 102.27358013 13.40400002 113.38022369 11.16552734 124.53710938 C8.97295004 135.40221658 6.4833155 146.1982406 4 157 C-5.54471184 157.09278251 -15.08926783 157.16380665 -24.63433266 157.20724869 C-29.06676822 157.22810139 -33.49889467 157.25637633 -37.93115234 157.30175781 C-42.21055504 157.34529877 -46.48966088 157.36915454 -50.76926804 157.37950897 C-52.39993333 157.38688559 -54.03058284 157.4012906 -55.66112137 157.42292023 C-57.94972777 157.45206509 -60.23711604 157.45595156 -62.52587891 157.45410156 C-63.82715729 157.46298401 -65.12843567 157.47186646 -66.46914673 157.48101807 C-70.63633952 156.91330968 -72.75789181 155.63372664 -76 153 C-79.48036278 147.77945584 -78.03709671 142.7756942 -76.8984375 136.88671875 C-76.3985305 134.48531987 -75.89025584 132.08565242 -75.375 129.6875 C-75.10719727 128.41672607 -74.83939453 127.14595215 -74.56347656 125.83666992 C-72.49782837 116.08153704 -70.29281635 106.3585939 -68.00537109 96.65307617 C-66.54614848 90.45665983 -65.20225411 84.2515491 -64 78 C-60.60711567 78.65941521 -58.07584466 79.97002296 -55.11328125 81.73046875 C-54.17419922 82.28669922 -53.23511719 82.84292969 -52.26757812 83.41601562 C-51.29240234 84.00060547 -50.31722656 84.58519531 -49.3125 85.1875 C-48.35666016 85.75275391 -47.40082031 86.31800781 -46.41601562 86.90039062 C-40.48835145 90.4278963 -34.69605551 94.10968703 -29 98 C-29.61959498 107.60372217 -31.83420197 116.63816337 -34 126 C-24.76 126 -15.52 126 -6 126 C-5.67 123.36 -5.34 120.72 -5 118 C-4.66309792 116.17306331 -4.30024021 114.35063757 -3.90625 112.53515625 C-3.68509521 111.50874023 -3.46394043 110.48232422 -3.23608398 109.42480469 C-2.87172241 107.76046387 -2.87172241 107.76046387 -2.5 106.0625 C-2.24226807 104.87172852 -1.98453613 103.68095703 -1.71899414 102.45410156 C0.29673665 93.16334588 2.34401028 83.87947261 4.38720703 74.59472656 C5.73844733 68.45272518 7.08464087 62.30962037 8.42871094 56.16604614 C9.24930429 52.41692799 10.07211546 48.66838567 10.90673828 44.92236328 C11.6558153 41.55443054 12.39239279 38.18404562 13.125 34.8125 C13.44319702 33.40822754 13.44319702 33.40822754 13.76782227 31.97558594 C15.42764447 24.42813184 15.42764447 24.42813184 12.92724609 17.3112793 C11.55296228 15.46194379 10.11209396 13.69722786 8.625 11.9375 C5.4418125 8.08700366 2.43826203 4.38721297 0 0 Z " fill="#030303" transform="translate(221,146)"/>
<path d="M0 0 C2.27619839 3.41429758 2.1755815 4.99579863 1.51953125 8.9609375 C-0.6408788 17.44014087 -9.4873885 23.92149084 -16.61328125 28.296875 C-23.65709751 32.42088299 -30.96883389 36.06937666 -38.3125 39.625 C-39.03574463 39.98021729 -39.75898926 40.33543457 -40.50415039 40.70141602 C-45.64361189 43.11879604 -45.64361189 43.11879604 -49 42 C-50.35439668 39.29120665 -50.06501451 36.99066732 -50 34 C-47.24010046 32.62005023 -44.4799637 31.24060094 -41.71875 29.86328125 C-39.06727976 28.53826508 -36.4229806 27.19979204 -33.78125 25.85546875 C-33.07097656 25.49582031 -32.36070312 25.13617188 -31.62890625 24.765625 C-30.2288367 24.05659895 -28.83034614 23.34444481 -27.43359375 22.62890625 C-22.36775476 20.07080863 -22.36775476 20.07080863 -19.84570312 19.58520508 C-19.23662109 19.3920874 -18.62753906 19.19896973 -18 19 C-17.505 17.515 -17.505 17.515 -17 16 C-15.33919322 15.31886633 -13.67135277 14.65482987 -12 14 C-9.34023052 12.02591465 -9.34023052 12.02591465 -6.8125 9.6875 C-5.95269531 8.92824219 -5.09289062 8.16898438 -4.20703125 7.38671875 C-1.976739 4.97484518 -0.98367245 3.10488789 0 0 Z " fill="#98979C" transform="translate(354,225)"/>
<path d="M0 0 C2.52692114 2.52692114 2.38257153 3.61193147 2.5 7.125 C2.36838992 13.4258324 0.34532969 16.60764293 -4 21 C-4.53367187 21.57105469 -5.06734375 22.14210937 -5.6171875 22.73046875 C-11.50311895 28.44636218 -18.82748032 32.1179962 -26.01220703 35.93652344 C-27.86420581 36.92734961 -29.69653007 37.94728607 -31.52734375 38.9765625 C-32.57019531 39.54117188 -33.61304688 40.10578125 -34.6875 40.6875 C-35.59886719 41.18636719 -36.51023437 41.68523437 -37.44921875 42.19921875 C-40 43 -40 43 -42.6875 42.23828125 C-45.01383665 40.99259085 -47.02611004 39.75456885 -49 38 C-49 37.34 -49 36.68 -49 36 C-48.47269287 35.77449463 -47.94538574 35.54898926 -47.40209961 35.31665039 C-20.496868 24.39943769 -20.496868 24.39943769 -1 4 C-0.30420546 1.80869466 -0.30420546 1.80869466 0 0 Z " fill="#949397" transform="translate(357,233)"/>
<path d="M0 0 C0.99 0.33 1.98 0.66 3 1 C4.32 9.91 5.64 18.82 7 28 C-24.45837434 13.9712655 -24.45837434 13.9712655 -28 10 C-27.34 9.67 -26.68 9.34 -26 9 C-25.23333008 9.34973877 -24.46666016 9.69947754 -23.67675781 10.05981445 C-21.06483112 11.26568719 -21.06483112 11.26568719 -18.61230469 10.32495117 C-17.80696289 9.90189697 -17.00162109 9.47884277 -16.171875 9.04296875 C-15.29015625 8.58986328 -14.4084375 8.13675781 -13.5 7.66992188 C-12.5925 7.18072266 -11.685 6.69152344 -10.75 6.1875 C-9.82703125 5.70990234 -8.9040625 5.23230469 -7.953125 4.74023438 C-3.71442362 2.7501701 -3.71442362 2.7501701 0 0 Z " fill="#601BEA" transform="translate(338,264)"/>
<path d="M0 0 C0.66 0 1.32 0 2 0 C2 0.66 2 1.32 2 2 C2.50789063 2.23976563 3.01578125 2.47953125 3.5390625 2.7265625 C6.90467264 4.46813219 10.12977268 6.42019772 13.375 8.375 C14.02210938 8.76171875 14.66921875 9.1484375 15.3359375 9.546875 C19.2996238 11.9282833 23.17268321 14.40500812 27 17 C23.45041822 19.94134142 19.58140261 21.80792028 15.4375 23.75 C14.76525391 24.07871094 14.09300781 24.40742188 13.40039062 24.74609375 C8.35829752 27.11943251 8.35829752 27.11943251 5 26 C4.20043945 23.82275391 4.20043945 23.82275391 3.61328125 20.9765625 C3.39736328 19.955625 3.18144531 18.9346875 2.95898438 17.8828125 C2.74564453 16.80773437 2.53230469 15.73265625 2.3125 14.625 C2.08755859 13.55765625 1.86261719 12.4903125 1.63085938 11.390625 C0 3.51887823 0 3.51887823 0 0 Z " fill="#611CEB" transform="translate(302,293)"/>
<path d="M0 0 C2.57694854 0.62252128 3.51805247 1.3809315 5.0859375 3.50390625 C5.94146775 10.02732441 5.94146775 10.02732441 4.03125 13.32421875 C1.30250125 16.6665323 -0.51641398 18.32160427 -4.7890625 18.87890625 C-7.9140625 18.50390625 -7.9140625 18.50390625 -10.2890625 16.44140625 C-12.3527075 12.71097105 -12.57886293 10.71430899 -11.9140625 6.50390625 C-8.73474843 0.86318773 -6.12151724 -0.15669413 0 0 Z " fill="#6521EB" transform="translate(202.9140625,320.49609375)"/>
<path d="M0 0 C2.13501503 1.56957726 2.88491508 2.48787212 3.46875 5.0859375 C3.53004233 9.57560094 3.4994597 11.38528037 0.5625 15 C-0.283125 15.66 -1.12875 16.32 -2 17 C-2.33 17.33 -2.66 17.66 -3 18 C-6.44683871 18.38298208 -8.37703045 18.37706052 -11.375 16.5625 C-13.78878921 12.7561401 -13.8807518 9.38037623 -13 5 C-9.39142215 -0.52563484 -6.13560894 -0.79169148 0 0 Z " fill="#0B0B0B" transform="translate(274,319)"/>
<path d="M0 0 C0.88429687 -0.01417969 1.76859375 -0.02835937 2.6796875 -0.04296875 C5.125 0.1875 5.125 0.1875 8.125 2.1875 C7.91875 3.13625 7.7125 4.085 7.5 5.0625 C7.37625 6.09375 7.2525 7.125 7.125 8.1875 C7.785 8.8475 8.445 9.5075 9.125 10.1875 C9.1875 12.625 9.1875 12.625 8.125 15.1875 C3.20636035 18.040311 -0.15125257 18.31789712 -5.875 18.1875 C-5.90184312 15.37493719 -5.92176188 12.56262759 -5.9375 9.75 C-5.94587891 8.94755859 -5.95425781 8.14511719 -5.96289062 7.31835938 C-5.9715143 5.27454779 -5.9272815 3.23066098 -5.875 1.1875 C-4.21846314 -0.46903686 -2.26849204 0.01643835 0 0 Z " fill="#7030ED" transform="translate(214.875,320.8125)"/>
<path d="M0 0 C1.98 0 3.96 0 6 0 C6.33 1.32 6.66 2.64 7 4 C7.99 2.68 8.98 1.36 10 0 C12.475 0.99 12.475 0.99 15 2 C14.690625 2.598125 14.38125 3.19625 14.0625 3.8125 C12.89790296 6.08956772 12.89790296 6.08956772 12 9 C12.99 9.99 13.98 10.98 15 12 C14.1875 13.9375 14.1875 13.9375 13 16 C12.01 16.33 11.02 16.66 10 17 C9.01 16.01 8.02 15.02 7 14 C6.34 15.32 5.68 16.64 5 18 C3.35 18 1.7 18 0 18 C0 12.06 0 6.12 0 0 Z " fill="#0F0F0F" transform="translate(229,319)"/>
<path d="M0 0 C1.65 0 3.3 0 5 0 C5 5.61 5 11.22 5 17 C3.35 17 1.7 17 0 17 C0 15.68 0 14.36 0 13 C-0.99 13 -1.98 13 -3 13 C-3 14.65 -3 16.3 -3 18 C-4.98 18 -6.96 18 -9 18 C-9 12.39 -9 6.78 -9 1 C-7.02 1 -5.04 1 -3 1 C-3 3.31 -3 5.62 -3 8 C-2.01 8 -1.02 8 0 8 C0 5.36 0 2.72 0 0 Z " fill="#090909" transform="translate(254,319)"/>
<path d="M0 0 C1.98 0 3.96 0 6 0 C6.37711099 6.15947951 6.00477144 10.54689627 3 16 C-0.46998729 18.31332486 -1.92509248 18.33957563 -6 18 C-6.99 17.34 -7.98 16.68 -9 16 C-8.67 14.68 -8.34 13.36 -8 12 C-6.68 12 -5.36 12 -4 12 C-3.01 11.67 -2.02 11.34 -1 11 C-0.67 7.37 -0.34 3.74 0 0 Z " fill="#6C2BEC" transform="translate(184,321)"/>
<path d="M0 0 C1.65 0 3.3 0 5 0 C5.56312292 11.90900701 5.56312292 11.90900701 2 16 C-1.46923881 18.31282587 -2.92205575 18.42478586 -7 18 C-8.875 16.5 -8.875 16.5 -10 15 C-9.67 14.01 -9.34 13.02 -9 12 C-6 11 -6 11 -1 12 C-0.67 8.04 -0.34 4.08 0 0 Z " fill="#0B0B0B" transform="translate(289,319)"/>
<path d="M0 0 C0.33 0.99 0.66 1.98 1 3 C-9.05465422 8.94559054 -19.02690768 13.979686 -30 18 C-29 15 -29 15 -27.30102539 13.9284668 C-26.57391357 13.60531494 -25.84680176 13.28216309 -25.09765625 12.94921875 C-24.29368408 12.58304443 -23.48971191 12.21687012 -22.66137695 11.83959961 C-21.80374756 11.45940674 -20.94611816 11.07921387 -20.0625 10.6875 C-13.10303977 7.50920992 -6.41269183 4.20369259 0 0 Z " fill="#6627E3" transform="translate(337,252)"/>
<path d="M0 0 C6.64360544 1.12286289 12.71776674 6.32614092 16.98046875 11.3203125 C19.74081577 15.34155878 21.77900145 19.23810565 23 24 C22.34 24.33 21.68 24.66 21 25 C20.78085937 24.43152344 20.56171875 23.86304688 20.3359375 23.27734375 C16.3380747 13.54271036 10.80981389 8.55131146 2.1953125 2.6015625 C1.47085937 2.07304687 0.74640625 1.54453125 0 1 C0 0.67 0 0.34 0 0 Z " fill="#EAE9EC" transform="translate(342,304)"/>
<path d="M0 0 C0.66 1.32 1.32 2.64 2 4 C-2.77668279 10.96599574 -8.50746407 18.61147427 -17 21 C-15.81203698 17.43611093 -14.7405195 16.84126818 -11.75 14.6875 C-6.3026407 10.57383439 -2.16188804 6.68219939 0 0 Z " fill="#EEEDF0" transform="translate(355,233)"/>
<path d="M0 0 C1.65 0 3.3 0 5 0 C5 1.65 5 3.3 5 5 C3.35 5.33 1.7 5.66 0 6 C-1.125 2.25 -1.125 2.25 0 0 Z " fill="#F2EDFD" transform="translate(197,327)"/>
<path d="M0 0 C1.2065625 0.0309375 1.2065625 0.0309375 2.4375 0.0625 C2.1075 1.7125 1.7775 3.3625 1.4375 5.0625 C0.1175 5.3925 -1.2025 5.7225 -2.5625 6.0625 C-2.94468767 4.40635343 -3.27645102 2.73792976 -3.5625 1.0625 C-2.5625 0.0625 -2.5625 0.0625 0 0 Z " fill="#F5F5F5" transform="translate(269.5625,324.9375)"/>
<path d="M0 0 C0.66 0 1.32 0 2 0 C2 3.3 2 6.6 2 10 C0.35 8.35 -1.3 6.7 -3 5 C-1.625 2.5 -1.625 2.5 0 0 Z " fill="#EEEEEE" transform="translate(243,323)"/>
</svg>
